<svg width="235" height="512" fill="none" xmlns="http://www.w3.org/2000/svg"><circle cx="139.863" cy="254.834" r="5.239" fill="#CBBBF8" fill-opacity=".06"/><circle cx="139.862" cy="296.75" r="5.239" fill="#CBBBF8" fill-opacity=".06"/><circle cx="184.921" cy="254.834" r="5.239" fill="#CBBBF8" fill-opacity=".06"/><circle cx="184.921" cy="296.75" r="5.239" fill="#CBBBF8" fill-opacity=".06"/><circle cx="226.838" cy="254.834" r="5.239" fill="#CBBBF8" fill-opacity=".06"/><circle cx="226.838" cy="296.75" r="5.239" fill="#CBBBF8" fill-opacity=".06"/><circle cx="140.911" cy="338.666" r="5.239" fill="#CBBBF8" fill-opacity=".06"/><circle cx="140.91" cy="380.582" r="5.239" fill="#CBBBF8" fill-opacity=".06"/><circle cx="185.97" cy="338.666" r="5.239" fill="#CBBBF8" fill-opacity=".06"/><circle cx="185.97" cy="380.582" r="5.239" fill="#CBBBF8" fill-opacity=".06"/><circle cx="227.886" cy="338.666" r="5.239" fill="#CBBBF8" fill-opacity=".06"/><circle cx="227.886" cy="380.582" r="5.239" fill="#CBBBF8" fill-opacity=".06"/><circle cx="141.159" cy="380.554" r="5.239" fill="#CBBBF8" fill-opacity=".06"/><circle cx="141.158" cy="422.47" r="5.239" fill="#CBBBF8" fill-opacity=".06"/><circle cx="186.217" cy="380.554" r="5.239" fill="#CBBBF8" fill-opacity=".06"/><circle cx="186.217" cy="422.47" r="5.239" fill="#CBBBF8" fill-opacity=".06"/><circle cx="228.134" cy="380.554" r="5.239" fill="#CBBBF8" fill-opacity=".06"/><circle cx="228.134" cy="422.47" r="5.239" fill="#CBBBF8" fill-opacity=".06"/><circle cx="142.206" cy="464.386" r="5.239" fill="#CBBBF8" fill-opacity=".06"/><circle cx="142.206" cy="506.302" r="5.239" fill="#CBBBF8" fill-opacity=".06"/><circle cx="187.265" cy="464.386" r="5.239" fill="#CBBBF8" fill-opacity=".06"/><circle cx="187.265" cy="506.302" r="5.239" fill="#CBBBF8" fill-opacity=".06"/><circle cx="229.182" cy="464.386" r="5.239" fill="#CBBBF8" fill-opacity=".06"/><circle cx="229.182" cy="506.302" r="5.239" fill="#CBBBF8" fill-opacity=".06"/><circle cx="7.661" cy="254.834" r="5.239" fill="#CBBBF8" fill-opacity=".06"/><circle cx="7.661" cy="296.75" r="5.239" fill="#CBBBF8" fill-opacity=".06"/><circle cx="52.72" cy="254.834" r="5.239" fill="#CBBBF8" fill-opacity=".06"/><circle cx="52.72" cy="296.75" r="5.239" fill="#CBBBF8" fill-opacity=".06"/><circle cx="94.636" cy="254.834" r="5.239" fill="#CBBBF8" fill-opacity=".06"/><circle cx="94.636" cy="296.75" r="5.239" fill="#CBBBF8" fill-opacity=".06"/><circle cx="8.709" cy="338.666" r="5.239" fill="#CBBBF8" fill-opacity=".06"/><circle cx="8.709" cy="380.582" r="5.239" fill="#CBBBF8" fill-opacity=".06"/><circle cx="53.768" cy="338.666" r="5.239" fill="#CBBBF8" fill-opacity=".06"/><circle cx="53.768" cy="380.582" r="5.239" fill="#CBBBF8" fill-opacity=".06"/><circle cx="95.684" cy="338.666" r="5.239" fill="#CBBBF8" fill-opacity=".06"/><circle cx="95.684" cy="380.582" r="5.239" fill="#CBBBF8" fill-opacity=".06"/><circle cx="8.957" cy="380.554" r="5.239" fill="#CBBBF8" fill-opacity=".06"/><circle cx="8.957" cy="422.47" r="5.239" fill="#CBBBF8" fill-opacity=".06"/><circle cx="54.017" cy="380.554" r="5.239" fill="#CBBBF8" fill-opacity=".06"/><circle cx="54.017" cy="422.47" r="5.239" fill="#CBBBF8" fill-opacity=".06"/><circle cx="95.933" cy="380.554" r="5.239" fill="#CBBBF8" fill-opacity=".06"/><circle cx="95.933" cy="422.47" r="5.239" fill="#CBBBF8" fill-opacity=".06"/><circle cx="10.005" cy="464.386" r="5.239" fill="#CBBBF8" fill-opacity=".06"/><circle cx="10.005" cy="506.302" r="5.239" fill="#CBBBF8" fill-opacity=".06"/><circle cx="55.064" cy="464.386" r="5.239" fill="#CBBBF8" fill-opacity=".06"/><circle cx="55.064" cy="506.302" r="5.239" fill="#CBBBF8" fill-opacity=".06"/><circle cx="96.981" cy="464.386" r="5.239" fill="#CBBBF8" fill-opacity=".06"/><circle cx="96.981" cy="506.302" r="5.239" fill="#CBBBF8" fill-opacity=".06"/><circle cx="137.863" cy="5.834" r="5.239" fill="#CBBBF8" fill-opacity=".06"/><circle cx="137.862" cy="47.749" r="5.239" fill="#CBBBF8" fill-opacity=".06"/><circle cx="182.921" cy="5.834" r="5.239" fill="#CBBBF8" fill-opacity=".06"/><circle cx="182.921" cy="47.749" r="5.239" fill="#CBBBF8" fill-opacity=".06"/><circle cx="224.838" cy="5.834" r="5.239" fill="#CBBBF8" fill-opacity=".06"/><circle cx="224.838" cy="47.749" r="5.239" fill="#CBBBF8" fill-opacity=".06"/><circle cx="138.911" cy="89.665" r="5.239" fill="#CBBBF8" fill-opacity=".06"/><circle cx="138.91" cy="131.582" r="5.239" fill="#CBBBF8" fill-opacity=".06"/><circle cx="183.97" cy="89.665" r="5.239" fill="#CBBBF8" fill-opacity=".06"/><circle cx="183.97" cy="131.582" r="5.239" fill="#CBBBF8" fill-opacity=".06"/><circle cx="225.886" cy="89.665" r="5.239" fill="#CBBBF8" fill-opacity=".06"/><circle cx="225.886" cy="131.582" r="5.239" fill="#CBBBF8" fill-opacity=".06"/><circle cx="139.159" cy="131.554" r="5.239" fill="#CBBBF8" fill-opacity=".06"/><circle cx="139.158" cy="173.47" r="5.239" fill="#CBBBF8" fill-opacity=".06"/><circle cx="184.217" cy="131.554" r="5.239" fill="#CBBBF8" fill-opacity=".06"/><circle cx="184.217" cy="173.47" r="5.239" fill="#CBBBF8" fill-opacity=".06"/><circle cx="226.134" cy="131.554" r="5.239" fill="#CBBBF8" fill-opacity=".06"/><circle cx="226.134" cy="173.47" r="5.239" fill="#CBBBF8" fill-opacity=".06"/><circle cx="140.206" cy="215.386" r="5.239" fill="#CBBBF8" fill-opacity=".06"/><circle cx="140.206" cy="257.302" r="5.239" fill="#CBBBF8" fill-opacity=".06"/><circle cx="185.265" cy="215.386" r="5.239" fill="#CBBBF8" fill-opacity=".06"/><circle cx="185.265" cy="257.302" r="5.239" fill="#CBBBF8" fill-opacity=".06"/><circle cx="227.182" cy="215.386" r="5.239" fill="#CBBBF8" fill-opacity=".06"/><circle cx="227.182" cy="257.302" r="5.239" fill="#CBBBF8" fill-opacity=".06"/><circle cx="5.661" cy="5.834" r="5.239" fill="#CBBBF8" fill-opacity=".06"/><circle cx="5.661" cy="47.749" r="5.239" fill="#CBBBF8" fill-opacity=".06"/><circle cx="50.72" cy="5.834" r="5.239" fill="#CBBBF8" fill-opacity=".06"/><circle cx="50.72" cy="47.749" r="5.239" fill="#CBBBF8" fill-opacity=".06"/><circle cx="92.636" cy="5.834" r="5.239" fill="#CBBBF8" fill-opacity=".06"/><circle cx="92.636" cy="47.749" r="5.239" fill="#CBBBF8" fill-opacity=".06"/><circle cx="6.709" cy="89.665" r="5.239" fill="#CBBBF8" fill-opacity=".06"/><circle cx="6.709" cy="131.582" r="5.239" fill="#CBBBF8" fill-opacity=".06"/><circle cx="51.768" cy="89.665" r="5.239" fill="#CBBBF8" fill-opacity=".06"/><circle cx="51.768" cy="131.582" r="5.239" fill="#CBBBF8" fill-opacity=".06"/><circle cx="93.684" cy="89.665" r="5.239" fill="#CBBBF8" fill-opacity=".06"/><circle cx="93.684" cy="131.582" r="5.239" fill="#CBBBF8" fill-opacity=".06"/><circle cx="6.957" cy="131.554" r="5.239" fill="#CBBBF8" fill-opacity=".06"/><circle cx="6.957" cy="173.47" r="5.239" fill="#CBBBF8" fill-opacity=".06"/><circle cx="52.017" cy="131.554" r="5.239" fill="#CBBBF8" fill-opacity=".06"/><circle cx="52.017" cy="173.47" r="5.239" fill="#CBBBF8" fill-opacity=".06"/><circle cx="93.933" cy="131.554" r="5.239" fill="#CBBBF8" fill-opacity=".06"/><circle cx="93.933" cy="173.47" r="5.239" fill="#CBBBF8" fill-opacity=".06"/><circle cx="8.005" cy="215.386" r="5.239" fill="#CBBBF8" fill-opacity=".06"/><circle cx="8.005" cy="257.302" r="5.239" fill="#CBBBF8" fill-opacity=".06"/><circle cx="53.064" cy="215.386" r="5.239" fill="#CBBBF8" fill-opacity=".06"/><circle cx="53.064" cy="257.302" r="5.239" fill="#CBBBF8" fill-opacity=".06"/><circle cx="94.981" cy="215.386" r="5.239" fill="#CBBBF8" fill-opacity=".06"/><circle cx="94.981" cy="257.302" r="5.239" fill="#CBBBF8" fill-opacity=".06"/></svg>