<svg width="27" height="26" viewBox="0 0 27 26" fill="none" xmlns="http://www.w3.org/2000/svg">
<path d="M1.73926 7.5V3C1.73926 1.89543 2.63469 1 3.73926 1H23.7393C24.8438 1 25.7393 1.89543 25.7393 3V23C25.7393 24.1046 24.8438 25 23.7393 25H3.73926C2.63469 25 1.73926 24.1046 1.73926 23V18.5" stroke="white" stroke-width="1.5"/>
<path d="M15.1989 13.4596C15.4527 13.2058 15.4527 12.7942 15.1989 12.5404L11.0623 8.40381C10.8085 8.14997 10.3969 8.14997 10.1431 8.40381C9.88922 8.65765 9.88922 9.0692 10.1431 9.32304L13.82 13L10.1431 16.677C9.88922 16.9308 9.88922 17.3424 10.1431 17.5962C10.3969 17.85 10.8085 17.85 11.0623 17.5962L15.1989 13.4596ZM1.73926 13.65H14.7393V12.35H1.73926V13.65Z" fill="white"/>
</svg>
